<svg xmlns="http://www.w3.org/2000/svg" version="1.1" xmlns:xlink="http://www.w3.org/1999/xlink" viewBox="0 0 700 700" style="overflow: hidden; display: block;" width="700" height="700"><defs></defs><g id="two-0" transform="matrix(1 0 0 1 0 0)" opacity="1"><path transform="matrix(1 0 0 1 350 350)" id="two-18" d="M 239.31027 70.267835 C 234.154592 97.729975 181.902528 84.665447 161.577685 103.839673 C 147.529125 117.092924 139.17658 137.209398 135.284515 156.126653 C 124.533517 208.381527 189.775343 288.498257 144.997118 317.499401 C 111.42875 339.240349 65.619552 289.89763 37.580603 261.378838 C 7.417762 230.699808 22.01304 148.841165 -20.821694 144.818058 C -81.956091 139.076216 -78.649617 319.960889 -133.69252 292.745783 C -195.689413 262.092384 -27.42142 137.221212 -78.479799 90.570515 C -117.132547 55.254516 -175.118953 151.832996 -227.147642 145.978925 C -259.88388 142.295568 -293.63718 119.439403 -310.602835 91.20122 C -326.168509 65.293211 -324.506948 29.722823 -319.023431 0 C -313.562315 -29.601405 -303.376589 -64.507081 -278.77876 -81.85683 C -243.928532 -106.437971 -172.636991 -60.2653 -150.395094 -96.653059 C -125.472724 -137.426075 -212.483735 -185.79705 -201.23863 -232.241759 C -194.182287 -261.38598 -163.109253 -286.317541 -133.949031 -293.307464 C -102.172913 -300.924438 -64.62453 -286.763786 -38.423133 -267.238758 C -7.149466 -243.933923 -11.226425 -183.631607 23.993214 -166.87647 C 40.644429 -158.95494 61.643623 -178.798623 79.425073 -173.916652 C 96.589432 -169.204107 104.765002 -145.344439 121.9617 -140.751306 C 162.006393 -130.055613 214.645802 -185.028985 246.330182 -158.306796 C 267.843322 -140.162897 259.861658 -98.951413 248.826967 -73.06219 C 234.740226 -40.012352 168.890621 -35.918343 168.115555 -0.000001 C 167.403406 33.002638 245.401142 37.824306 239.31027 70.267835 Z " fill=" hsl(205, 69%, 60%)" stroke="undefined" stroke-width="1" stroke-opacity="1" fill-opacity="1" visibility="visible" stroke-linecap="butt" stroke-linejoin="miter" stroke-miterlimit="4"></path></g></svg>