<svg xmlns="http://www.w3.org/2000/svg" version="1.1" xmlns:xlink="http://www.w3.org/1999/xlink" xmlns:svgjs="http://svgjs.dev/svgjs" viewBox="0 0 2400 800" opacity="0.74"><defs><linearGradient x1="50%" y1="0%" x2="50%" y2="100%" id="sssurf-grad"><stop stop-color="hsl(208, 77%, 50%)" stop-opacity="1" offset="0%"></stop><stop stop-color="hsl(208, 74%, 93%)" stop-opacity="1" offset="100%"></stop></linearGradient></defs><g fill="url(#sssurf-grad)" transform="matrix(1,0,0,1,10.1300048828125,312.20310974121094)"><path d="M-10,10C25.416666666666664,12.708333333333332,91.25,31.75,160,23C228.75,14.25,253.33333333333331,-40.958333333333336,320,-32C386.6666666666667,-23.041666666666664,413.3333333333333,63.291666666666664,480,66C546.6666666666666,68.70833333333333,573.3333333333334,-9.625,640,-19C706.6666666666666,-28.375,733.3333333333334,19.125,800,21C866.6666666666666,22.875,893.3333333333334,-15,960,-10C1026.6666666666667,-5,1053.3333333333333,53.125,1120,45C1186.6666666666667,36.875,1213.3333333333333,-56.291666666666664,1280,-49C1346.6666666666667,-41.708333333333336,1373.3333333333333,77.29166666666667,1440,80C1506.6666666666667,82.70833333333333,1533.3333333333333,-34.958333333333336,1600,-36C1666.6666666666667,-37.041666666666664,1693.3333333333333,70,1760,75C1826.6666666666667,80,1853.3333333333333,-5.333333333333334,1920,-12C1986.6666666666667,-18.666666666666664,2013.3333333333333,37.583333333333336,2080,43C2146.6666666666665,48.416666666666664,2173.3333333333335,9,2240,14C2306.6666666666665,19,2314.5833333333335,-13.416666666666657,2400,67C2485.4166666666665,147.41666666666666,3254.1666666666665,226.45833333333331,2650,400C2045.8333333333335,573.5416666666667,156.25,795.8333333333334,-500,900" transform="matrix(1,0,0,1,0,25)" opacity="0.05"></path><path d="M-10,10C25.416666666666664,12.708333333333332,91.25,31.75,160,23C228.75,14.25,253.33333333333331,-40.958333333333336,320,-32C386.6666666666667,-23.041666666666664,413.3333333333333,63.291666666666664,480,66C546.6666666666666,68.70833333333333,573.3333333333334,-9.625,640,-19C706.6666666666666,-28.375,733.3333333333334,19.125,800,21C866.6666666666666,22.875,893.3333333333334,-15,960,-10C1026.6666666666667,-5,1053.3333333333333,53.125,1120,45C1186.6666666666667,36.875,1213.3333333333333,-56.291666666666664,1280,-49C1346.6666666666667,-41.708333333333336,1373.3333333333333,77.29166666666667,1440,80C1506.6666666666667,82.70833333333333,1533.3333333333333,-34.958333333333336,1600,-36C1666.6666666666667,-37.041666666666664,1693.3333333333333,70,1760,75C1826.6666666666667,80,1853.3333333333333,-5.333333333333334,1920,-12C1986.6666666666667,-18.666666666666664,2013.3333333333333,37.583333333333336,2080,43C2146.6666666666665,48.416666666666664,2173.3333333333335,9,2240,14C2306.6666666666665,19,2314.5833333333335,-13.416666666666657,2400,67C2485.4166666666665,147.41666666666666,3254.1666666666665,226.45833333333331,2650,400C2045.8333333333335,573.5416666666667,156.25,795.8333333333334,-500,900" transform="matrix(1,0,0,1,0,50)" opacity="0.37"></path><path d="M-10,10C25.416666666666664,12.708333333333332,91.25,31.75,160,23C228.75,14.25,253.33333333333331,-40.958333333333336,320,-32C386.6666666666667,-23.041666666666664,413.3333333333333,63.291666666666664,480,66C546.6666666666666,68.70833333333333,573.3333333333334,-9.625,640,-19C706.6666666666666,-28.375,733.3333333333334,19.125,800,21C866.6666666666666,22.875,893.3333333333334,-15,960,-10C1026.6666666666667,-5,1053.3333333333333,53.125,1120,45C1186.6666666666667,36.875,1213.3333333333333,-56.291666666666664,1280,-49C1346.6666666666667,-41.708333333333336,1373.3333333333333,77.29166666666667,1440,80C1506.6666666666667,82.70833333333333,1533.3333333333333,-34.958333333333336,1600,-36C1666.6666666666667,-37.041666666666664,1693.3333333333333,70,1760,75C1826.6666666666667,80,1853.3333333333333,-5.333333333333334,1920,-12C1986.6666666666667,-18.666666666666664,2013.3333333333333,37.583333333333336,2080,43C2146.6666666666665,48.416666666666664,2173.3333333333335,9,2240,14C2306.6666666666665,19,2314.5833333333335,-13.416666666666657,2400,67C2485.4166666666665,147.41666666666666,3254.1666666666665,226.45833333333331,2650,400C2045.8333333333335,573.5416666666667,156.25,795.8333333333334,-500,900" transform="matrix(1,0,0,1,0,75)" opacity="0.68"></path><path d="M-10,10C25.416666666666664,12.708333333333332,91.25,31.75,160,23C228.75,14.25,253.33333333333331,-40.958333333333336,320,-32C386.6666666666667,-23.041666666666664,413.3333333333333,63.291666666666664,480,66C546.6666666666666,68.70833333333333,573.3333333333334,-9.625,640,-19C706.6666666666666,-28.375,733.3333333333334,19.125,800,21C866.6666666666666,22.875,893.3333333333334,-15,960,-10C1026.6666666666667,-5,1053.3333333333333,53.125,1120,45C1186.6666666666667,36.875,1213.3333333333333,-56.291666666666664,1280,-49C1346.6666666666667,-41.708333333333336,1373.3333333333333,77.29166666666667,1440,80C1506.6666666666667,82.70833333333333,1533.3333333333333,-34.958333333333336,1600,-36C1666.6666666666667,-37.041666666666664,1693.3333333333333,70,1760,75C1826.6666666666667,80,1853.3333333333333,-5.333333333333334,1920,-12C1986.6666666666667,-18.666666666666664,2013.3333333333333,37.583333333333336,2080,43C2146.6666666666665,48.416666666666664,2173.3333333333335,9,2240,14C2306.6666666666665,19,2314.5833333333335,-13.416666666666657,2400,67C2485.4166666666665,147.41666666666666,3254.1666666666665,226.45833333333331,2650,400C2045.8333333333335,573.5416666666667,156.25,795.8333333333334,-500,900" transform="matrix(1,0,0,1,0,100)" opacity="1.00"></path></g></svg>